{
  "accessors": [
    {
      "bufferView": 1,
      "componentType": 5126,
      "count": 65532,
      "max": [
        2.102802038192749,
        0.25182929635047913,
        1.7743340730667114
      ],
      "min": [
        -2.1352417469024658,
        -1.2082048654556274,
        -5.4618668556213379
      ],
      "type": "VEC3"
    },
    {
      "bufferView": 1,
      "byteOffset": 786384,
      "componentType": 5126,
      "count": 65532,
      "max": [
        0.99999439716339111,
        0.9999852180480957,
        0.99980449676513672
      ],
      "min": [
        -0.9999920129776001,
        -0.99999111890792847,
        -0.99999237060546875
      ],
      "type": "VEC3"
    },
    {
      "bufferView": 0,
      "componentType": 5125,
      "count": 321651,
      "max": [
        65531
      ],
      "min": [
        0
      ],
      "type": "SCALAR"
    },
    {
      "bufferView": 1,
      "byteOffset": 1572768,
      "componentType": 5126,
      "count": 65532,
      "max": [
        2.015697717666626,
        0.29391169548034668,
        1.8268041610717773
      ],
      "min": [
        -2.1341772079467773,
        -1.209195613861084,
        -5.460690975189209
      ],
      "type": "VEC3"
    },
    {
      "bufferView": 1,
      "byteOffset": 2359152,
      "componentType": 5126,
      "count": 65532,
      "max": [
        0.99989926815032959,
        0.99999141693115234,
        0.99951547384262085
      ],
      "min": [
        -0.99999958276748657,
        -0.99996167421340942,
        -0.99999254941940308
      ],
      "type": "VEC3"
    },
    {
      "bufferView": 0,
      "byteOffset": 1286604,
      "componentType": 5125,
      "count": 324897,
      "max": [
        65531
      ],
      "min": [
        0
      ],
      "type": "SCALAR"
    },
    {
      "bufferView": 1,
      "byteOffset": 3145536,
      "componentType": 5126,
      "count": 65532,
      "max": [
        2.1343410015106201,
        0.29484742879867554,
        1.8388024568557739
      ],
      "min": [
        -2.131929874420166,
        -1.1793979406356812,
        -5.4691877365112305
      ],
      "type": "VEC3"
    },
    {
      "bufferView": 1,
      "byteOffset": 3931920,
      "componentType": 5126,
      "count": 65532,
      "max": [
        0.9999956488609314,
        0.99999558925628662,
        0.99789959192276001
      ],
      "min": [
        -0.99997997283935547,
        -0.99987494945526123,
        -0.99999302625656128
      ],
      "type": "VEC3"
    },
    {
      "bufferView": 0,
      "byteOffset": 2586192,
      "componentType": 5125,
      "count": 325755,
      "max": [
        65531
      ],
      "min": [
        0
      ],
      "type": "SCALAR"
    },
    {
      "bufferView": 1,
      "byteOffset": 4718304,
      "componentType": 5126,
      "count": 65532,
      "max": [
        2.1351432800292969,
        0.29499554634094238,
        1.8406572341918945
      ],
      "min": [
        -2.1353347301483154,
        -1.2093278169631958,
        -5.4679379463195801
      ],
      "type": "VEC3"
    },
    {
      "bufferView": 1,
      "byteOffset": 5504688,
      "componentType": 5126,
      "count": 65532,
      "max": [
        0.9999956488609314,
        0.99999141693115234,
        0.9998549222946167
      ],
      "min": [
        -0.99999487400054932,
        -0.99998259544372559,
        -0.99998378753662109
      ],
      "type": "VEC3"
    },
    {
      "bufferView": 0,
      "byteOffset": 3889212,
      "componentType": 5125,
      "count": 309882,
      "max": [
        65531
      ],
      "min": [
        0
      ],
      "type": "SCALAR"
    },
    {
      "bufferView": 1,
      "byteOffset": 6291072,
      "componentType": 5126,
      "count": 58502,
      "max": [
        2.1343410015106201,
        0.29498380422592163,
        1.8410778045654297
      ],
      "min": [
        -2.1308107376098633,
        -1.2085655927658081,
        -5.4691295623779297
      ],
      "type": "VEC3"
    },
    {
      "bufferView": 1,
      "byteOffset": 6993096,
      "componentType": 5126,
      "count": 58502,
      "max": [
        0.99998104572296143,
        0.9999852180480957,
        0.9999505877494812
      ],
      "min": [
        -0.9999920129776001,
        -0.99994188547134399,
        -0.99999237060546875
      ],
      "type": "VEC3"
    },
    {
      "bufferView": 0,
      "byteOffset": 5128740,
      "componentType": 5125,
      "count": 144765,
      "max": [
        58501
      ],
      "min": [
        0
      ],
      "type": "SCALAR"
    }
  ],
  "asset": {
    "extras": {
      "author": "mandragorasprout (https://sketchfab.com/mandragorasprout)",
      "license": "CC-BY-4.0 (http://creativecommons.org/licenses/by/4.0/)",
      "source": "https://sketchfab.com/3d-models/male-body-base-mesh-9311f4f8fa1a4fe4bb0027ff7e8fd795",
      "title": "Male body base mesh"
    },
    "generator": "Sketchfab-10.0.0",
    "version": "2.0"
  },
  "bufferViews": [
    {
      "buffer": 0,
      "byteLength": 5707800,
      "byteOffset": 0,
      "name": "floatBufferViews",
      "target": 34963
    },
    {
      "buffer": 0,
      "byteLength": 7695120,
      "byteOffset": 5707800,
      "byteStride": 12,
      "name": "floatBufferViews",
      "target": 34962
    }
  ],
  "buffers": [
    {
      "byteLength": 13402920,
      "uri": "scene.bin"
    }
  ],
  "materials": [
    {
      "doubleSided": true,
      "name": "material_0",
      "pbrMetallicRoughness": {
        "baseColorFactor": [
          1,
          1,
          1,
          1
        ],
        "metallicFactor": 0,
        "roughnessFactor": 0.59999999999999998
      }
    }
  ],
  "meshes": [
    {
      "primitives": [
        {
          "attributes": {
            "NORMAL": 1,
            "POSITION": 0
          },
          "indices": 2,
          "material": 0,
          "mode": 4
        }
      ]
    },
    {
      "primitives": [
        {
          "attributes": {
            "NORMAL": 4,
            "POSITION": 3
          },
          "indices": 5,
          "material": 0,
          "mode": 4
        }
      ]
    },
    {
      "primitives": [
        {
          "attributes": {
            "NORMAL": 7,
            "POSITION": 6
          },
          "indices": 8,
          "material": 0,
          "mode": 4
        }
      ]
    },
    {
      "primitives": [
        {
          "attributes": {
            "NORMAL": 10,
            "POSITION": 9
          },
          "indices": 11,
          "material": 0,
          "mode": 4
        }
      ]
    },
    {
      "primitives": [
        {
          "attributes": {
            "NORMAL": 13,
            "POSITION": 12
          },
          "indices": 14,
          "material": 0,
          "mode": 4
        }
      ]
    }
  ],
  "nodes": [
    {
      "children": [
        1
      ],
      "name": "RootNode (gltf orientation matrix)",
      "rotation": [
        -0.70710678118654746,
        -0,
        -0,
        0.70710678118654757
      ]
    },
    {
      "children": [
        2
      ],
      "name": "RootNode (model correction matrix)"
    },
    {
      "children": [
        3,
        4,
        5,
        6,
        7
      ],
      "name": "main1.obj.cleaner.materialmerger.gles"
    },
    {
      "mesh": 0,
      "name": ""
    },
    {
      "mesh": 1,
      "name": ""
    },
    {
      "mesh": 2,
      "name": ""
    },
    {
      "mesh": 3,
      "name": ""
    },
    {
      "mesh": 4,
      "name": ""
    }
  ],
  "scene": 0,
  "scenes": [
    {
      "name": "OSG_Scene",
      "nodes": [
        0
      ]
    }
  ]
}

